<?xml version="1.0" standalone="no"?>
<!DOCTYPE svg PUBLIC "-//W3C//DTD SVG 20010904//EN"
 "http://www.w3.org/TR/2001/REC-SVG-20010904/DTD/svg10.dtd">
<svg version="1.0" xmlns="http://www.w3.org/2000/svg"
 width="200.000000pt" height="200.000000pt" viewBox="0 0 200.000000 200.000000"
 preserveAspectRatio="xMidYMid meet">
<metadata>
Created by potrace 1.16, written by Peter Selinger 2001-2019
</metadata>
<g transform="translate(0.000000,200.000000) scale(0.100000,-0.100000)"
fill="#000000" stroke="none">
<path d="M874 1969 c-75 -28 -137 -88 -176 -167 l-33 -67 0 -360 0 -360 28
-57 c35 -72 93 -130 165 -165 49 -24 69 -28 142 -28 65 1 96 6 132 22 66 30
143 105 175 172 l28 56 0 360 0 360 -33 67 c-61 124 -166 188 -305 187 -47 0
-90 -7 -123 -20z m256 -65 c29 -16 67 -46 86 -67 61 -72 64 -93 64 -466 0
-378 -2 -385 -78 -465 -138 -145 -378 -101 -461 84 -19 42 -21 65 -21 381 0
276 3 344 15 380 57 160 246 234 395 153z"/>
<path d="M947 1762 c-40 -45 -6 -122 53 -122 59 0 90 67 54 118 -20 28 -83 31
-107 4z"/>
<path d="M663 664 c-4 -11 41 -63 158 -180 90 -90 171 -164 179 -164 8 0 89
74 179 164 117 117 162 169 158 180 -4 9 -14 16 -24 16 -10 0 -84 -66 -165
-147 l-148 -148 -148 148 c-81 81 -155 147 -165 147 -10 0 -20 -7 -24 -16z"/>
<path d="M663 354 c-4 -11 41 -63 158 -180 90 -90 171 -164 179 -164 8 0 89
74 179 164 117 117 162 169 158 180 -4 9 -14 16 -24 16 -10 0 -84 -66 -165
-147 l-148 -148 -148 148 c-81 81 -155 147 -165 147 -10 0 -20 -7 -24 -16z"/>
</g>
</svg>
